<svg width="617" height="795" viewBox="0 0 617 795" fill="none" xmlns="http://www.w3.org/2000/svg">
<g filter="url(#filter0_d_77_155)">
<path d="M577.6 584.904H521.943L528.127 596.987H586.595L577.6 584.904Z" fill="#9C9C9C"/>
<path d="M529.251 767L522.786 740.023L521.943 584.904L528.127 596.987L529.251 767Z" fill="#666666"/>
<path d="M586.595 596.987H528.127L529.251 767H588L586.595 596.987Z" fill="#C0C0C0"/>
<path d="M522.505 704.615L525.878 707.706L478.092 708.549V704.615H522.505Z" fill="#585858"/>
<path d="M525.878 739.742H478.092V708.542L525.878 707.706V739.742Z" fill="#878787"/>
<path d="M298.754 56.5976L297.348 52.9445L296.224 55.7546L298.754 56.5976Z" fill="#666666"/>
<path d="M265.303 149.051L270.925 131.909L275.704 140.059L269.801 156.638L265.303 149.051Z" fill="#666666"/>
<path d="M176.478 123.76L175.072 118.702L253.779 144.836L252.092 149.894L176.478 123.76Z" fill="#666666"/>
<path d="M206.274 24L175.072 118.702L265.585 148.77L297.348 52.9444L206.274 24Z" fill="#C0C0C0"/>
<path d="M255.746 752.669L248.719 761.38V744.519H255.746V752.669Z" fill="#666666"/>
<path d="M48.5796 471.936L36.4925 475.87L53.6393 481.209L56.1691 474.465L48.5796 471.936Z" fill="#666666"/>
<path d="M70.2239 400.559L60.3856 402.245L77.8135 407.865L79.7811 402.807L70.2239 400.559Z" fill="#666666"/>
<path d="M329.674 752.106L325.458 761.38L325.177 744.238H329.674V752.106Z" fill="#666666"/>
<path d="M196.998 655.157L205.43 649.256L226.231 702.929L478.092 701.243L478.373 712.765L219.485 713.608L196.998 655.157Z" fill="#9C9C9C"/>
<path d="M156.52 271.854L165.796 275.788L89.9005 510.435L141.06 555.678L131.503 562.703L77.2513 513.245L156.52 271.854Z" fill="#9C9C9C"/>
<path d="M196.997 744.8L171.137 675.952L105.642 583.217L39.8657 523.361L23 517.741L36.4925 475.87L53.0771 480.928L66.5696 444.959L48.5796 438.495L60.3856 402.245L77.5323 407.584L90.7438 370.209L73.3159 364.308L85.1219 327.776L101.988 332.272L113.231 299.394L96.0846 292.93L108.453 255.836L156.52 271.854L77.5323 513.526L131.502 562.422L326.459 424.211L390.672 517.741L197.56 655.438L219.485 712.765H397.137H412.316H478.373V761.38H434.241V743.957H402.759V761.38H357.502V744.8H325.458V761.38H281.045V744.8H248.719V761.38H196.997V744.8Z" fill="#C0C0C0"/>
<path d="M393.201 660.215L397.137 712.765H412.316L407.818 656.562L464.599 638.858L462.07 631.833L445.204 580.407L355.254 607.666L374.087 666.398L393.201 660.215Z" fill="#A7A7A7"/>
<path d="M357.784 603.451L355.254 607.666L445.204 580.407L442.112 577.316L357.784 603.451Z" fill="#666666"/>
<path d="M231.853 419.948L233.54 491.044L246.189 482.052L244.784 402.806L281.607 345.76L244.784 322.717L191.095 405.897L226.512 428.659L231.853 419.948Z" fill="#C0C0C0"/>
<path d="M232.134 431.469C230.448 430.533 226.737 428.884 226.512 428.659L231.853 419.948L232.134 431.469Z" fill="#7A7A7A"/>
<path d="M244.503 403.087L246.189 481.49L251.249 477.837L250.124 400.558L284.418 346.322H281.326L244.503 403.087Z" fill="#9C9C9C"/>
<path d="M141.06 229.983L130.097 262.862L145.557 268.201L157.082 235.041L141.06 229.983Z" fill="#878787"/>
<path d="M157.082 235.041L145.557 268.201L151.179 270.168L160.174 243.191L157.082 235.041Z" fill="#585858"/>
<path d="M131.502 229.983L117.448 222.396L141.06 229.983L140.216 233.075L131.502 229.983Z" fill="#7A7A7A"/>
<path d="M258.838 267.639L117.448 222.396L137.405 166.474L277.953 211.155L258.838 267.639Z" fill="#C0C0C0"/>
<path d="M160.174 243.191L157.082 235.042L259.119 267.358L273.736 279.161L160.174 243.191Z" fill="#7A7A7A"/>
<path d="M258.838 267.358L277.953 211.155L291.445 227.735L273.455 278.88L258.838 267.358Z" fill="#9C9C9C"/>
<path d="M452.231 107.46L431.712 165.911V192.046L451.388 139.777L452.231 107.46Z" fill="#9C9C9C"/>
<path d="M452.231 107.461L275.985 49.0099L255.746 106.899L431.711 165.912L452.231 107.461Z" fill="#A7A7A7"/>
<path d="M275.704 140.058L255.746 106.898L431.711 165.911V192.045L275.704 140.058Z" fill="#7A7A7A"/>
<path d="M270.363 154.952L254.06 203.568L248.157 201.882L265.585 148.77L268.114 151.861L270.363 154.952Z" fill="#585858"/>
<path d="M177.04 122.636L159.612 173.78L175.353 178.558L191.657 127.694L177.04 122.636Z" fill="#878787"/>
<path d="M235.789 198.229L253.779 144.555L265.585 148.77L248.157 202.163L235.789 198.229Z" fill="#878787"/>
<path d="M180.694 180.244L175.353 178.558L191.657 127.694L196.435 130.785L180.694 180.244Z" fill="#585858"/>
</g>
<defs>
<filter id="filter0_d_77_155" x="0" y="0" width="617" height="795" filterUnits="userSpaceOnUse" color-interpolation-filters="sRGB">
<feFlood flood-opacity="0" result="BackgroundImageFix"/>
<feColorMatrix in="SourceAlpha" type="matrix" values="0 0 0 0 0 0 0 0 0 0 0 0 0 0 0 0 0 0 127 0" result="hardAlpha"/>
<feOffset dx="3" dy="2"/>
<feGaussianBlur stdDeviation="13"/>
<feComposite in2="hardAlpha" operator="out"/>
<feColorMatrix type="matrix" values="0 0 0 0 0.0125 0 0 0 0 0.0125 0 0 0 0 0.0125 0 0 0 0.16 0"/>
<feBlend mode="normal" in2="BackgroundImageFix" result="effect1_dropShadow_77_155"/>
<feBlend mode="normal" in="SourceGraphic" in2="effect1_dropShadow_77_155" result="shape"/>
</filter>
</defs>
</svg>
