<svg width="712" height="919" viewBox="0 0 712 919" fill="none" xmlns="http://www.w3.org/2000/svg">
<g filter="url(#filter0_d_77_154)">
<path d="M669.967 678.51H605.041L612.255 692.61H680.46L669.967 678.51Z" fill="#9C9C9C"/>
<path d="M613.567 890.996L606.025 859.516L605.041 678.51L612.255 692.61L613.567 890.996Z" fill="#666666"/>
<path d="M680.461 692.609H612.255L613.567 890.995H682.1L680.461 692.609Z" fill="#C0C0C0"/>
<path d="M605.697 818.199L609.632 821.806L553.887 822.79V818.199H605.697Z" fill="#585858"/>
<path d="M609.632 859.188H553.887V822.782L609.632 821.807V859.188Z" fill="#878787"/>
<path d="M344.68 62.0373L343.041 57.7744L341.729 61.0535L344.68 62.0373Z" fill="#666666"/>
<path d="M305.659 169.921L312.217 149.918L317.792 159.427L310.905 178.774L305.659 169.921Z" fill="#666666"/>
<path d="M202.039 140.408L200.4 134.506L292.214 165.002L290.247 170.904L202.039 140.408Z" fill="#666666"/>
<path d="M236.798 24L200.4 134.506L305.987 169.592L343.041 57.7748L236.798 24Z" fill="#C0C0C0"/>
<path d="M294.51 874.272L286.312 884.437V864.763H294.51V874.272Z" fill="#666666"/>
<path d="M52.8398 546.689L38.7396 551.28L58.7422 557.51L61.6934 549.64L52.8398 546.689Z" fill="#666666"/>
<path d="M78.089 463.4L66.6122 465.368L86.9426 471.926L89.2379 466.024L78.089 463.4Z" fill="#666666"/>
<path d="M380.75 873.616L375.832 884.437L375.504 864.435H380.75V873.616Z" fill="#666666"/>
<path d="M225.977 760.488L235.814 753.602L260.079 816.232L553.887 814.265L554.215 827.709L252.209 828.693L225.977 760.488Z" fill="#9C9C9C"/>
<path d="M178.757 313.217L189.579 317.808L101.043 591.613L160.722 644.406L149.573 652.604L86.2867 594.892L178.757 313.217Z" fill="#9C9C9C"/>
<path d="M225.977 865.091L195.809 784.753L119.406 676.542L42.6746 606.697L23 600.139L38.7397 551.28L58.0864 557.183L73.8261 515.21L52.8398 507.668L66.6121 465.368L86.6146 471.598L102.026 427.986L81.696 421.1L95.4682 378.471L115.143 383.718L128.259 345.352L108.257 337.811L122.685 294.526L178.757 313.217L86.6146 595.22L149.573 652.277L377 491L451.907 600.139L226.632 760.815L252.209 827.709H459.449H477.156H554.215V884.437H502.733V864.107H466.007V884.437H413.213V865.091H375.832V884.437H324.022V865.091H286.312V884.437H225.977V865.091Z" fill="#C0C0C0"/>
<path d="M454.858 766.39L459.449 827.709H477.156L471.909 762.127L538.147 741.469L535.196 733.271L515.521 673.264L410.59 705.071L432.56 773.604L454.858 766.39Z" fill="#A7A7A7"/>
<path d="M413.541 700.152L410.59 705.071L515.521 673.263L511.914 669.656L413.541 700.152Z" fill="#666666"/>
<path d="M266.637 486.025L268.605 568.987L283.361 558.494L281.721 466.023L324.678 399.457L281.721 372.568L219.09 469.63L260.407 496.191L266.637 486.025Z" fill="#C0C0C0"/>
<path d="M266.965 499.47C264.998 498.377 260.67 496.453 260.407 496.191L266.638 486.025L266.965 499.47Z" fill="#7A7A7A"/>
<path d="M281.393 466.351L283.361 557.838L289.263 553.575L287.952 463.4L327.957 400.113H324.35L281.393 466.351Z" fill="#9C9C9C"/>
<path d="M160.722 264.358L147.934 302.724L165.969 308.954L179.413 270.261L160.722 264.358Z" fill="#878787"/>
<path d="M179.413 270.261L165.969 308.954L172.527 311.25L183.02 279.77L179.413 270.261Z" fill="#585858"/>
<path d="M149.573 264.359L133.178 255.506L160.722 264.359L159.739 267.966L149.573 264.359Z" fill="#7A7A7A"/>
<path d="M298.117 308.299L133.178 255.505L156.46 190.251L320.415 242.389L298.117 308.299Z" fill="#C0C0C0"/>
<path d="M183.02 279.77L179.413 270.261L298.445 307.97L315.496 321.743L183.02 279.77Z" fill="#7A7A7A"/>
<path d="M298.117 307.971L320.415 242.389L336.154 261.735L315.168 321.415L298.117 307.971Z" fill="#9C9C9C"/>
<path d="M523.719 121.389L499.782 189.594V220.09L522.736 159.098L523.719 121.389Z" fill="#9C9C9C"/>
<path d="M523.719 121.389L318.119 53.1836L294.51 120.733L499.782 189.594L523.719 121.389Z" fill="#A7A7A7"/>
<path d="M317.792 159.426L294.51 120.732L499.782 189.594V220.089L317.792 159.426Z" fill="#7A7A7A"/>
<path d="M311.561 176.807L292.542 233.535L285.656 231.568L305.987 169.593L308.938 173.2L311.561 176.807Z" fill="#585858"/>
<path d="M202.695 139.097L182.365 198.776L200.727 204.351L219.746 144.999L202.695 139.097Z" fill="#878787"/>
<path d="M271.228 227.305L292.215 164.674L305.987 169.592L285.656 231.895L271.228 227.305Z" fill="#878787"/>
<path d="M206.958 206.318L200.728 204.351L219.746 144.999L225.321 148.606L206.958 206.318Z" fill="#585858"/>
</g>
<defs>
<filter id="filter0_d_77_154" x="0" y="0" width="711.1" height="918.996" filterUnits="userSpaceOnUse" color-interpolation-filters="sRGB">
<feFlood flood-opacity="0" result="BackgroundImageFix"/>
<feColorMatrix in="SourceAlpha" type="matrix" values="0 0 0 0 0 0 0 0 0 0 0 0 0 0 0 0 0 0 127 0" result="hardAlpha"/>
<feOffset dx="3" dy="2"/>
<feGaussianBlur stdDeviation="13"/>
<feComposite in2="hardAlpha" operator="out"/>
<feColorMatrix type="matrix" values="0 0 0 0 0.0125 0 0 0 0 0.0125 0 0 0 0 0.0125 0 0 0 0.16 0"/>
<feBlend mode="normal" in2="BackgroundImageFix" result="effect1_dropShadow_77_154"/>
<feBlend mode="normal" in="SourceGraphic" in2="effect1_dropShadow_77_154" result="shape"/>
</filter>
</defs>
</svg>
